<?xml version="1.0" ?><!DOCTYPE svg  PUBLIC '-//W3C//DTD SVG 1.1//EN'  'http://www.w3.org/Graphics/SVG/1.1/DTD/svg11.dtd'><svg enable-background="new 0 0 64 64" height="64px" id="Layer_1" version="1.1" viewBox="0 0 64 64" width="64px" xml:space="preserve" xmlns="http://www.w3.org/2000/svg" xmlns:xlink="http://www.w3.org/1999/xlink"><g><g><path d="M32,30.912c-6.86,0-12.42,5.561-12.42,12.419c0,6.86,5.56,12.42,12.42,12.42    c6.859,0,12.42-5.56,12.42-12.42C44.42,36.473,38.859,30.912,32,30.912z M31.757,53.014c-5.349,0-9.684-4.331-9.684-9.683    c0-5.346,4.335-9.683,9.684-9.683c5.348,0,9.684,4.337,9.684,9.683C41.44,48.683,37.104,53.014,31.757,53.014z" fill="#241F20"/></g><g><circle cx="32" cy="43.331" fill="#241F20" r="5.368"/></g><g><path d="M32,8.613c-5.358,0-9.703,4.345-9.703,9.703c0,5.357,4.345,9.701,9.703,9.701    c5.358,0,9.703-4.344,9.703-9.701C41.703,12.958,37.358,8.613,32,8.613z M32,24.888c-3.628,0-6.572-2.943-6.572-6.571    c0-3.629,2.944-6.572,6.572-6.572c3.63,0,6.572,2.943,6.572,6.572C38.572,21.944,35.63,24.888,32,24.888z" fill="#241F20"/></g><g><circle cx="32" cy="18.316" fill="#241F20" r="3.442"/></g><path d="M46.984-0.033H16.998c-2.855,0-5.154,2.329-5.154,5.196V58.99c0.043,1.3,0.53,5.043,4.707,5.043h31.471   c3.617,0,4.085-3.383,4.135-4.658V5.163C52.156,2.296,49.839-0.033,46.984-0.033z M48.822,57.668c0,2.413-1.869,2.776-2.725,2.819   H18.938c-3.088,0-3.602-2.294-3.671-3.397V8.004c0-2.557,1.915-4.633,4.29-4.633h24.961c2.375,0,4.304,2.076,4.304,4.633V57.668z" fill="#241F20"/></g></svg>